<?xml version="1.0" standalone="no"?>
<!DOCTYPE svg PUBLIC "-//W3C//DTD SVG 20010904//EN"
 "http://www.w3.org/TR/2001/REC-SVG-20010904/DTD/svg10.dtd">
<svg version="1.0" xmlns="http://www.w3.org/2000/svg"
 width="370.000000pt" height="370.000000pt" viewBox="0 0 370.000000 370.000000"
 preserveAspectRatio="xMidYMid meet">
<metadata>
Created by potrace 1.11, written by Peter Selinger 2001-2013
</metadata>
<g transform="translate(0.000000,370.000000) scale(0.100000,-0.100000)"
fill="#000000" stroke="none">
<path d="M1642 3519 c2 -6 -3 -14 -11 -17 -9 -3 -11 0 -6 9 5 8 -1 5 -13 -5
-22 -19 -22 -19 -22 0 0 11 -3 15 -8 8 -4 -6 -15 -10 -24 -8 -10 1 -18 -3 -18
-9 0 -7 -5 -5 -10 3 -9 13 -10 13 -10 0 0 -13 -1 -13 -10 0 -5 8 -10 10 -10 4
0 -5 -18 -9 -40 -8 -22 1 -43 -3 -46 -7 -3 -5 -11 -6 -17 -2 -23 14 -37 11
-52 -10 -14 -20 -21 -12 -15 18 1 5 -7 3 -17 -5 -10 -9 -27 -15 -38 -15 -11 0
-26 -5 -34 -13 -11 -10 -16 -10 -29 0 -13 11 -14 11 -7 -1 6 -11 3 -13 -13 -9
-12 4 -25 1 -29 -4 -4 -7 -1 -8 7 -3 9 6 11 4 5 -5 -6 -10 -11 -9 -23 6 -13
16 -14 17 -9 2 5 -14 1 -18 -19 -18 -17 0 -23 -4 -18 -12 6 -10 4 -10 -8 0
-13 10 -18 10 -24 1 -5 -8 -3 -9 6 -4 9 5 11 4 6 -3 -5 -9 -13 -9 -26 -2 -13
7 -21 7 -26 -2 -4 -7 -3 -8 4 -4 7 4 12 5 12 2 0 -3 -9 -10 -20 -16 -16 -9
-19 -8 -14 7 3 10 -2 6 -11 -9 -18 -32 -27 -37 -19 -10 5 16 5 16 -8 0 -8 -9
-27 -19 -43 -22 -16 -3 -32 -11 -36 -17 -4 -7 -15 -9 -25 -5 -17 6 -17 5 0 -9
19 -14 18 -15 -12 -11 -23 2 -32 -1 -32 -11 0 -8 -6 -13 -12 -10 -20 7 -50
-12 -41 -26 4 -7 0 -6 -10 2 -15 12 -17 12 -11 -4 5 -12 4 -16 -4 -11 -6 4
-21 -4 -33 -18 -17 -20 -26 -23 -40 -15 -15 8 -19 6 -19 -6 0 -10 5 -13 12 -9
6 4 8 3 4 -4 -3 -6 -15 -9 -26 -7 -18 3 -25 -5 -21 -27 0 -4 -6 -5 -14 -1 -17
6 -58 -25 -50 -37 3 -4 -2 -11 -11 -14 -8 -3 -13 -10 -9 -15 3 -5 1 -12 -4
-16 -6 -3 -8 4 -6 15 5 27 -14 15 -26 -17 -5 -13 -13 -22 -18 -19 -14 9 -21
-20 -8 -33 9 -9 8 -10 -7 -5 -14 6 -17 4 -11 -6 5 -8 -1 -20 -16 -32 -13 -11
-17 -16 -9 -12 12 6 13 5 3 -8 -7 -8 -10 -18 -6 -22 4 -4 -1 -4 -12 0 -18 7
-19 6 -5 -11 14 -17 13 -17 -10 -11 -21 6 -22 5 -8 -4 17 -10 17 -12 -2 -32
-11 -12 -20 -27 -20 -32 0 -6 4 -5 9 2 7 11 9 11 14 -2 4 -9 2 -16 -3 -16 -5
0 -7 -9 -5 -20 2 -12 0 -18 -6 -15 -5 4 -7 10 -4 15 3 5 2 11 -2 13 -5 3 -8
-10 -9 -29 0 -19 3 -31 9 -27 6 4 7 1 1 -8 -14 -22 -16 -51 -3 -43 7 4 10 1 7
-7 -3 -8 -12 -13 -22 -11 -9 2 -16 -2 -16 -8 0 -6 5 -8 10 -5 6 3 10 -1 10 -9
0 -9 -5 -16 -11 -16 -6 0 -7 -5 -2 -12 11 -19 12 -68 1 -75 -6 -3 -5 -9 3 -15
11 -7 11 -11 2 -15 -7 -2 -13 -9 -13 -14 0 -6 4 -8 9 -5 11 7 9 -13 -3 -33 -6
-9 -5 -12 1 -8 7 4 10 -6 10 -27 -1 -19 -5 -32 -9 -30 -10 6 -11 -10 -1 -20
11 -11 14 -48 3 -41 -5 3 -10 1 -10 -4 0 -6 6 -11 13 -11 8 0 7 -4 -3 -10 -13
-9 -13 -11 0 -20 12 -8 13 -11 1 -19 -11 -7 -11 -9 0 -14 11 -4 11 -6 0 -6
-11 -1 -10 -5 5 -17 13 -11 14 -14 3 -11 -9 3 -16 -1 -16 -8 0 -7 9 -11 21 -9
12 3 15 2 9 -2 -7 -3 -13 -13 -13 -22 0 -15 2 -15 10 -2 8 12 10 11 10 -5 0
-12 -5 -26 -12 -33 -9 -9 -9 -12 3 -12 9 0 15 -9 15 -24 0 -14 -4 -22 -8 -20
-5 3 -6 10 -3 15 4 5 1 9 -4 9 -19 0 -12 -18 17 -40 15 -12 21 -19 15 -15 -7
3 -13 0 -14 -7 0 -7 -2 -21 -4 -31 -2 -13 1 -17 11 -13 19 7 18 -4 -3 -21 -16
-13 -16 -14 -1 -10 16 6 20 -15 5 -29 -4 -4 1 -13 10 -19 15 -11 16 -15 3 -31
-13 -16 -13 -17 1 -12 12 5 15 -1 15 -22 0 -16 -3 -27 -7 -24 -4 2 -6 -4 -5
-13 2 -9 9 -19 17 -21 11 -3 11 -1 -1 8 -12 9 -12 11 -1 8 8 -2 15 -12 17 -21
1 -11 -2 -15 -9 -10 -7 3 -9 3 -5 -2 4 -4 2 -15 -5 -23 -10 -13 -9 -14 2 -7
11 6 13 4 8 -8 -4 -11 -1 -17 9 -17 8 0 13 -4 10 -8 -3 -5 1 -20 9 -35 8 -15
10 -27 4 -27 -5 0 -9 -5 -9 -11 0 -5 6 -7 13 -4 6 4 3 -1 -7 -9 -17 -14 -16
-20 5 -18 3 1 6 -5 6 -13 0 -8 -4 -12 -9 -9 -4 3 -8 -2 -8 -10 0 -9 5 -16 10
-16 6 0 10 -5 10 -11 0 -5 -5 -7 -12 -3 -6 4 -8 3 -4 -4 3 -5 1 -12 -6 -14 -7
-3 -5 -7 6 -11 11 -5 15 -3 10 5 -5 7 -3 8 5 4 7 -5 10 -14 7 -21 -2 -7 1 -18
7 -24 8 -8 8 -14 2 -19 -14 -10 -17 -32 -5 -32 7 0 7 -6 0 -19 -13 -25 -13
-41 0 -21 8 11 10 7 8 -17 -1 -18 -6 -33 -10 -33 -4 0 -8 -4 -8 -8 0 -5 6 -9
14 -9 9 0 13 8 10 20 -2 11 0 17 4 13 9 -10 9 -86 0 -80 -5 3 -8 0 -8 -5 0 -6
4 -11 9 -11 5 0 11 -7 14 -14 4 -10 1 -13 -9 -9 -7 3 -14 0 -14 -6 0 -6 4 -11
9 -11 5 0 11 -9 14 -21 4 -16 2 -19 -11 -14 -14 5 -14 3 2 -13 15 -18 15 -21
2 -35 -11 -11 -12 -17 -4 -19 14 -5 20 -38 6 -38 -6 0 -7 8 -4 17 4 10 3 14
-1 9 -11 -11 -11 -76 1 -69 5 4 7 -1 3 -9 -3 -9 0 -21 6 -28 9 -10 9 -11 0 -6
-6 3 -14 2 -18 -4 -3 -5 -1 -10 5 -10 6 0 8 -5 3 -13 -11 -17 -12 -68 -2 -61
13 8 11 -10 -4 -25 -9 -11 -9 -13 1 -7 6 4 12 2 12 -3 0 -6 -4 -11 -8 -11 -5
0 -9 -7 -9 -15 0 -8 4 -15 9 -15 4 0 8 -5 8 -11 0 -5 -4 -8 -9 -4 -6 3 -9 -4
-8 -15 1 -11 5 -20 10 -20 4 0 6 -4 3 -9 -8 -12 21 -34 34 -26 5 3 13 -1 16
-9 3 -9 10 -16 16 -16 5 0 6 6 2 13 -5 9 -3 9 7 -1 12 -11 12 -14 -1 -22 -13
-8 -12 -10 3 -10 11 0 15 -4 11 -12 -4 -6 -3 -8 3 -5 6 4 23 -3 39 -15 15 -13
25 -17 21 -11 -12 19 37 11 57 -10 10 -9 22 -14 28 -11 7 4 8 2 4 -4 -8 -14
-46 2 -46 18 0 6 -6 10 -12 10 -7 0 -1 -11 14 -24 15 -13 26 -26 25 -28 -1 -2
2 0 8 4 15 13 28 9 21 -7 -3 -8 -2 -14 2 -14 19 3 33 -2 27 -10 -3 -5 -1 -12
4 -15 5 -4 8 2 7 11 -2 9 -8 19 -14 21 -7 2 -12 8 -12 14 0 6 9 3 21 -8 12
-10 22 -18 23 -16 4 11 36 -13 32 -24 -7 -17 10 -28 20 -13 5 8 3 9 -6 4 -8
-5 -11 -4 -6 3 4 6 13 9 22 5 11 -4 12 -8 3 -19 -10 -12 -8 -13 17 -4 28 10
28 9 9 -6 l-20 -16 20 4 c12 2 19 -2 17 -10 -1 -8 2 -11 7 -7 6 3 8 13 5 23
-5 16 -5 16 9 0 8 -10 18 -14 23 -10 4 4 2 -1 -5 -11 -13 -16 -12 -17 13 -7
35 13 36 13 36 -5 0 -8 5 -15 11 -15 5 0 7 5 3 12 -4 7 -3 8 5 4 9 -6 9 -11
-1 -24 -9 -11 -10 -14 -1 -8 7 4 23 2 35 -4 22 -10 22 -10 4 4 -18 14 -18 15
2 13 11 0 20 -4 20 -7 -2 -26 5 -39 21 -37 11 0 17 5 15 9 -3 4 2 5 10 2 9 -3
13 -11 9 -18 -4 -6 2 -4 12 4 17 14 18 13 12 -2 -7 -21 4 -23 22 -5 10 10 11
9 6 -4 -6 -16 21 -36 33 -24 3 3 0 5 -6 5 -7 0 -12 5 -12 12 0 9 3 9 12 0 7
-7 21 -12 31 -12 13 0 17 -5 14 -15 -4 -8 -1 -17 5 -21 7 -4 8 -3 4 4 -4 7 -1
12 9 12 11 0 15 -5 11 -16 -3 -8 -2 -13 3 -9 5 3 12 -1 15 -7 3 -7 3 -2 0 12
-5 22 -3 21 15 -8 12 -18 25 -30 31 -27 5 3 13 -3 19 -12 9 -16 10 -15 11 7 0
19 2 22 9 10 6 -8 8 -17 5 -21 -2 -4 1 -11 7 -15 8 -4 9 -3 5 4 -4 7 -2 12 3
12 6 0 11 -4 11 -10 0 -5 5 -10 11 -10 5 0 7 5 4 10 -9 15 1 12 14 -4 9 -11 9
-16 0 -22 -8 -5 -9 -3 -4 6 5 9 4 11 -4 6 -6 -4 -9 -12 -6 -17 8 -12 11 -12
29 7 15 14 16 13 16 -6 0 -12 4 -18 10 -15 6 4 7 11 4 17 -4 7 -2 8 5 4 6 -4
9 -12 6 -17 -4 -5 -3 -14 1 -21 5 -8 9 -7 13 6 6 15 8 15 28 -4 25 -23 38 -26
27 -7 -4 6 2 4 13 -6 11 -9 23 -14 28 -10 4 5 5 2 1 -5 -6 -9 -11 -10 -20 -3
-9 8 -13 7 -13 -3 0 -13 7 -14 47 -4 8 1 14 -3 12 -10 -1 -9 5 -12 19 -10 13
2 24 -3 26 -12 4 -12 3 -12 -5 -2 -8 11 -10 11 -15 -1 -4 -12 0 -15 15 -12 28
6 44 -5 27 -17 -10 -7 -8 -8 7 -4 11 4 29 0 39 -8 21 -15 48 -10 39 8 -3 6 8
-5 25 -24 17 -19 30 -28 29 -20 -2 11 5 14 26 12 21 -3 26 -1 20 10 -6 10 -5
11 7 2 11 -9 22 -8 47 6 21 11 28 20 20 23 -9 4 -9 6 -1 6 6 1 20 -7 29 -16
17 -17 18 -17 11 0 -4 12 -1 17 11 17 15 0 15 2 2 11 -13 9 -13 10 0 6 8 -2
24 0 35 5 20 9 20 9 1 -6 -23 -19 -9 -21 15 -3 9 7 14 17 12 24 -5 15 20 11
43 -7 18 -14 18 -14 5 3 -8 9 -12 19 -10 21 14 11 68 33 64 25 -4 -5 -1 -9 4
-9 6 0 11 5 11 11 0 16 31 38 53 39 9 0 17 6 17 13 0 8 7 14 15 14 12 0 12 -3
3 -16 -9 -12 -7 -11 8 2 11 9 24 14 28 10 4 -4 4 1 0 10 -3 10 -3 17 2 16 5
-1 20 -1 34 0 20 1 22 3 10 11 -12 8 -9 10 12 10 36 0 59 10 51 23 -4 6 2 8
16 4 16 -4 21 -2 17 8 -2 7 2 16 10 19 8 3 12 1 9 -4 -3 -6 1 -7 9 -4 9 3 13
11 9 17 -3 6 -1 7 6 3 6 -4 18 -2 26 4 8 6 20 8 27 4 11 -6 10 -5 0 8 -11 14
-10 16 14 13 15 -1 34 5 43 14 10 10 23 15 29 13 8 -2 10 3 5 14 -4 12 -3 15
5 10 14 -9 54 2 48 13 -3 4 5 13 17 21 20 12 21 12 8 -3 -9 -12 -10 -17 -2
-17 6 0 15 9 19 21 9 24 21 26 33 7 7 -11 9 -11 9 1 0 7 6 11 14 8 10 -4 13
-1 10 8 -4 10 0 13 15 10 11 -2 23 1 26 6 4 5 11 7 16 4 5 -3 6 2 2 11 -4 11
-3 15 4 11 6 -4 14 -1 16 5 4 10 6 10 6 1 1 -7 5 -13 11 -13 5 0 7 7 4 15 -5
11 -2 13 10 9 12 -5 15 -2 10 12 -6 17 -5 17 10 -1 14 -16 17 -17 12 -3 -4 12
-1 15 11 11 9 -4 21 0 27 9 6 8 16 17 21 19 6 2 9 8 7 13 -2 5 4 3 13 -4 8 -7
18 -10 22 -6 3 3 1 6 -5 6 -7 0 -12 5 -12 11 0 6 9 9 20 6 13 -3 20 0 20 9 0
8 7 17 15 20 8 4 12 11 8 17 -3 6 -1 7 6 3 6 -4 9 -12 6 -17 -3 -5 1 -6 9 -3
9 3 14 10 11 14 -3 5 4 18 16 29 12 11 18 24 14 30 -3 6 -2 11 3 11 6 0 13 7
16 16 3 8 2 13 -2 10 -4 -2 -8 4 -8 14 0 13 4 16 11 10 14 -11 14 38 0 59 -5
9 -4 12 2 8 6 -4 16 0 23 8 11 13 10 14 -2 10 -9 -4 -15 0 -15 9 0 8 4 13 8
10 4 -2 10 0 14 6 3 5 1 10 -4 10 -6 0 -11 5 -11 11 0 5 6 7 13 3 7 -5 6 0 -3
11 -9 11 -10 16 -2 11 7 -4 12 -1 12 8 0 9 -6 16 -12 16 -10 0 -10 2 -1 8 7 4
12 28 12 52 -1 88 4 130 15 131 6 0 2 4 -9 9 -18 7 -19 8 -2 15 9 4 17 11 17
17 0 5 -4 6 -10 3 -5 -3 -10 -2 -10 4 0 5 5 13 10 16 8 5 7 12 -2 23 -10 12
-10 14 0 8 6 -4 12 -3 12 3 0 5 -5 11 -11 13 -8 3 -8 11 2 27 11 18 11 25 2
28 -10 4 -9 8 2 19 16 16 9 47 -9 37 -6 -3 -6 -1 2 8 13 14 17 53 4 45 -5 -3
-9 1 -9 9 0 11 5 12 21 3 18 -10 19 -9 9 3 -16 20 -24 112 -8 99 8 -7 12 -5
12 5 0 8 -4 15 -9 15 -11 0 -6 54 7 62 6 5 4 8 -5 8 -13 0 -13 1 0 10 13 9 13
10 0 10 -13 0 -13 1 0 11 11 8 12 12 3 16 -10 3 -9 9 3 21 15 14 15 17 0 28
-10 7 -13 14 -7 15 5 2 12 27 14 55 2 28 7 57 12 64 5 9 4 11 -3 6 -7 -4 -12
-3 -12 3 0 5 5 13 10 16 8 5 8 11 0 20 -8 10 -7 16 7 24 17 10 17 10 -2 11
-11 1 -14 4 -7 7 6 2 10 9 6 14 -3 5 -1 9 4 9 5 0 12 9 15 20 3 11 1 18 -3 15
-13 -8 -6 51 8 67 6 8 9 18 5 22 -4 3 -8 13 -9 22 -2 11 1 12 10 5 8 -7 12 -5
12 9 0 10 -4 16 -9 13 -5 -3 -7 0 -5 8 3 8 12 13 19 11 11 -3 12 -1 2 9 -18
18 -16 29 5 22 14 -5 13 -3 -3 10 -17 14 -18 16 -4 22 11 4 15 17 13 46 -2 34
0 39 14 34 14 -5 14 -4 -1 12 -17 20 -8 51 12 39 14 -9 2 26 -13 36 -6 4 0 8
14 9 14 0 19 3 13 6 -7 2 -13 14 -13 24 0 11 5 17 10 14 6 -3 10 -1 10 4 0 6
-6 11 -12 11 -9 0 -8 4 2 10 8 5 10 10 4 10 -6 0 -11 7 -11 15 0 9 4 11 11 6
8 -7 11 7 11 45 0 51 -8 69 -18 42 -3 -7 -4 -3 -4 10 1 12 6 21 12 18 7 -2 12
2 12 10 0 7 -4 11 -8 9 -3 -3 -13 3 -20 12 -12 14 -12 16 2 11 9 -4 16 -1 16
8 0 7 -4 11 -9 8 -4 -3 -8 2 -8 11 0 9 -5 13 -11 9 -8 -5 -8 -1 0 14 16 30 14
36 -6 21 -10 -7 -15 -9 -11 -5 4 5 2 16 -5 24 -10 13 -9 14 3 7 8 -5 5 4 -8
19 -18 24 -20 32 -10 45 7 9 8 13 3 8 -4 -4 -17 0 -27 9 -15 14 -16 20 -5 32
10 13 9 14 -2 7 -11 -6 -13 -4 -8 9 5 14 3 17 -8 13 -8 -4 -17 -1 -21 5 -4 6
-3 8 3 5 6 -4 13 2 16 14 4 16 3 18 -9 8 -11 -9 -14 -8 -14 5 0 10 -4 14 -10
11 -5 -3 -10 3 -10 15 0 12 -4 19 -8 16 -4 -2 -9 5 -9 16 -2 28 -12 35 -23 18
-6 -8 -10 -10 -10 -4 0 5 6 16 13 23 6 8 7 11 1 8 -5 -3 -23 3 -40 14 -16 10
-24 19 -19 19 6 0 15 -3 21 -7 5 -5 2 -1 -8 8 -9 9 -14 20 -10 25 4 5 0 3 -9
-4 -14 -10 -18 -10 -23 4 -3 9 -3 21 1 27 4 7 -1 6 -10 -2 -14 -11 -18 -11
-23 2 -3 9 -11 14 -18 11 -7 -3 -19 2 -26 11 -10 12 -16 13 -28 3 -13 -11 -14
-11 -7 1 6 11 4 13 -8 8 -11 -4 -17 -1 -17 8 0 8 -4 15 -10 15 -5 0 -7 -8 -4
-17 5 -17 5 -17 -6 0 -6 9 -20 17 -31 17 -11 0 -17 5 -14 10 3 6 -1 10 -10 10
-9 0 -13 -4 -10 -10 3 -5 1 -10 -4 -10 -6 0 -11 6 -11 14 0 9 -7 12 -20 9 -12
-3 -20 0 -20 6 0 7 -8 11 -17 10 -34 -3 -44 1 -37 14 5 7 0 6 -11 -3 -17 -14
-18 -13 -13 2 5 12 1 16 -18 13 -13 -1 -24 1 -24 6 0 4 -15 5 -32 3 -22 -3
-28 -2 -20 4 11 7 11 10 -2 15 -9 4 -16 1 -16 -6 0 -8 -3 -8 -9 2 -5 7 -13 11
-19 7 -6 -3 -13 -2 -17 4 -4 6 -11 8 -16 5 -5 -4 -9 -1 -9 4 0 6 -3 10 -7 10
-29 -5 -53 2 -47 14 5 8 2 8 -9 -2 -12 -9 -17 -10 -17 -2 0 7 -10 11 -22 9
-13 -2 -22 2 -21 8 1 6 -4 11 -12 11 -8 0 -12 -3 -10 -7 2 -4 -2 -7 -10 -7 -8
0 -12 4 -9 9 3 4 -9 8 -26 8 -22 0 -29 4 -24 13 5 7 0 6 -11 -3 -17 -13 -18
-13 -13 0 4 12 -2 15 -33 14 -22 0 -39 4 -39 9 0 5 -7 4 -15 -3 -12 -10 -15
-10 -15 4 0 9 -5 16 -11 16 -5 0 -7 -5 -3 -11 4 -7 -1 -7 -16 1 -12 6 -24 9
-27 6 -3 -3 -14 -1 -24 5 -14 7 -19 6 -19 -2 0 -9 -3 -9 -14 0 -10 9 -16 9
-21 1 -5 -8 -13 -6 -25 5 -11 10 -20 13 -24 6 -5 -7 -15 -7 -32 -1 -14 6 -23
7 -21 2 3 -4 -15 -7 -39 -7 -24 0 -44 4 -44 8 0 5 -7 4 -15 -3 -9 -7 -18 -10
-22 -6 -3 3 -1 6 5 6 7 0 12 4 12 10 0 6 -10 6 -27 -1 -20 -7 -29 -7 -31 1 -3
8 -8 7 -19 -1 -11 -10 -16 -10 -22 0 -6 10 -10 9 -14 -3 -4 -9 -12 -16 -19
-15 -10 0 -10 2 0 6 6 2 12 8 12 12 0 10 -38 7 -47 -4 -5 -4 -1 -5 7 0 9 5 12
4 7 -1 -10 -10 -107 -13 -101 -2 2 3 0 10 -6 13 -6 4 -9 1 -8 -6z m-1038 -367
c3 -5 -1 -9 -9 -9 -8 0 -12 4 -9 9 3 4 7 8 9 8 2 0 6 -4 9 -8z m-52 -2339 c-8
-11 -16 -4 -18 17 -4 23 -3 24 8 5 6 -11 11 -21 10 -22z m94 -63 c8 0 14 -5
14 -11 0 -5 5 -7 12 -3 7 4 8 3 4 -4 -8 -14 -56 14 -55 32 0 7 2 6 6 -1 2 -7
11 -13 19 -13z m2244 -124 c0 -3 -4 -8 -10 -11 -5 -3 -10 -1 -10 4 0 6 5 11
10 11 6 0 10 -2 10 -4z m-1490 -240 c0 -10 -30 0 -34 11 -4 11 -1 11 14 3 11
-6 20 -12 20 -14z m370 -181 c11 -13 10 -14 -4 -9 -9 3 -16 10 -16 15 0 13 6
11 20 -6z m40 -25 c0 -5 -2 -10 -4 -10 -3 0 -8 5 -11 10 -3 6 -1 10 4 10 6 0
11 -4 11 -10z"/>
<path d="M1706 3522 c-3 -5 1 -9 9 -9 8 0 12 4 9 9 -3 4 -7 8 -9 8 -2 0 -6 -4
-9 -8z"/>
<path d="M695 3240 c-3 -5 -1 -10 4 -10 6 0 11 5 11 10 0 6 -2 10 -4 10 -3 0
-8 -4 -11 -10z"/>
<path d="M3316 2958 c3 -4 9 -8 15 -8 5 0 9 4 9 8 0 5 -7 9 -15 9 -8 0 -12 -4
-9 -9z"/>
<path d="M3350 2900 c0 -5 5 -10 11 -10 5 0 7 5 4 10 -3 6 -8 10 -11 10 -2 0
-4 -4 -4 -10z"/>
<path d="M346 2467 c3 -10 9 -15 12 -12 3 3 0 11 -7 18 -10 9 -11 8 -5 -6z"/>
<path d="M358 2193 c7 -3 16 -2 19 1 4 3 -2 6 -13 5 -11 0 -14 -3 -6 -6z"/>
<path d="M415 1900 c-3 -5 -1 -10 4 -10 6 0 11 5 11 10 0 6 -2 10 -4 10 -3 0
-8 -4 -11 -10z"/>
<path d="M450 1720 c0 -5 5 -10 11 -10 5 0 7 5 4 10 -3 6 -8 10 -11 10 -2 0
-4 -4 -4 -10z"/>
<path d="M477 1529 c7 -7 15 -10 18 -7 3 3 -2 9 -12 12 -14 6 -15 5 -6 -5z"/>
<path d="M833 625 c0 -8 4 -15 9 -15 4 0 8 4 8 9 0 6 -4 12 -8 15 -5 3 -9 -1
-9 -9z"/>
<path d="M1260 431 c0 -7 -5 -9 -12 -5 -7 5 -8 3 -3 -5 5 -9 10 -10 18 -2 6 6
8 14 4 18 -4 3 -7 1 -7 -6z"/>
<path d="M2265 300 c4 -6 11 -8 16 -5 14 9 11 15 -7 15 -8 0 -12 -5 -9 -10z"/>
<path d="M1560 280 c0 -5 5 -10 11 -10 5 0 7 5 4 10 -3 6 -8 10 -11 10 -2 0
-4 -4 -4 -10z"/>
<path d="M1654 239 c-3 -6 -2 -15 3 -20 5 -5 9 -1 9 11 0 23 -2 24 -12 9z"/>
</g>
</svg>
